<?xml version="1.0" encoding="UTF-8" standalone="no"?>
<!-- Designed by Vexels.com - 2021 All Rights Reserved - https://vexels.com/terms-and-conditions/  -->

<svg
   version="1.1"
   id="Capa_1"
   x="0px"
   y="0px"
   viewBox="0 0 107.1 106.38451"
   enable-background="new 0 0 1200 1200"
   xml:space="preserve"
   width="107.1"
   height="106.38451"
   sodipodi:docname="neptune.svg"
   inkscape:version="1.4.2 (f4327f4, 2025-05-13)"
   xmlns:inkscape="http://www.inkscape.org/namespaces/inkscape"
   xmlns:sodipodi="http://sodipodi.sourceforge.net/DTD/sodipodi-0.dtd"
   xmlns="http://www.w3.org/2000/svg"
   xmlns:svg="http://www.w3.org/2000/svg"><sodipodi:namedview
   id="namedview1"
   pagecolor="#505050"
   bordercolor="#ffffff"
   borderopacity="1"
   inkscape:showpageshadow="0"
   inkscape:pageopacity="0"
   inkscape:pagecheckerboard="1"
   inkscape:deskcolor="#505050"
   inkscape:zoom="10.039055"
   inkscape:cx="53.540895"
   inkscape:cy="53.192257"
   inkscape:window-width="2560"
   inkscape:window-height="1330"
   inkscape:window-x="-12"
   inkscape:window-y="-12"
   inkscape:window-maximized="1"
   inkscape:current-layer="Capa_1" /><defs
   id="defs324" />
<path
   fill="#253166"
   d="m 0,53.190351 c 4.1,73.319999 105.2,68.489999 107.1,0 -4,-73.31 -105.2,-68.49 -107.1,0 z M 53.6,6.1703511 c 0.7,0 1.5,0.1 2.3,0.12 -8.8,2.17 -20.2,12.8099999 2.6,5.4499999 6.8,-2.2899999 16.1,-3.0899999 23.8,4.3 -2.3,1.16 -30.6,5.4 -22.3,10.46 9.7,-0.57 28.2,-11.86 34.4,3.41 -1.3,-0.34 -45.7,9.82 -33.9,14.49 11.6,-0.43 35.3,-15.28 38.7,-2.56 4,7.7 -22.3,6.94 -27.8,13.64 7.1,2.48 17.8,-1.43 29.1,-3.97 3.8,13.77 -14.5,8.74 -22.5,18.08 3.7,3.76 12.3,-0.87 20.2,-1.82 -1.5,9.97 -11.2,11.76 -22.6,13.95 -4.4,4.29 7.4,3.6 13.7,1.93 -70.6,63.199999 -125.1,-68.61 -35.7,-77.4799999 z"
   id="path313"
   style="fill:#ffffff" />
</svg>
